<?xml version="1.0" standalone="no"?>
<!DOCTYPE svg PUBLIC "-//W3C//DTD SVG 20010904//EN"
 "http://www.w3.org/TR/2001/REC-SVG-20010904/DTD/svg10.dtd">
<svg version="1.0" xmlns="http://www.w3.org/2000/svg"
 width="1328.000000pt" height="1328.000000pt" viewBox="0 0 1328.000000 1328.000000"
 preserveAspectRatio="xMidYMid meet">
<metadata>
Created by potrace 1.11, written by Peter Selinger 2001-2013
</metadata>
<g transform="translate(0.000000,1328.000000) scale(0.100000,-0.100000)"
fill="#000000" stroke="none">
<path d="M5620 10780 c-507 -48 -983 -241 -1379 -560 -125 -101 -336 -319
-430 -443 -239 -320 -403 -686 -475 -1068 -25 -127 -47 -307 -40 -320 2 -3 92
-9 201 -12 420 -14 772 -100 1083 -264 119 -63 220 -129 220 -144 0 -7 -144
-231 -166 -257 -1 -2 -30 15 -63 37 -300 204 -707 311 -1188 311 -1068 1
-1965 -808 -2073 -1869 -87 -868 365 -1686 1151 -2081 280 -141 586 -211 919
-211 154 0 396 21 423 38 4 2 -24 39 -63 81 -242 263 -371 583 -387 960 l-6
142 160 0 160 0 6 -137 c16 -394 189 -707 509 -920 107 -71 116 -80 210 -198
80 -101 238 -260 348 -348 130 -105 240 -174 415 -263 249 -126 498 -198 780
-225 148 -14 461 -6 600 16 509 80 965 318 1324 690 l94 97 -130 128 c-71 70
-158 163 -193 206 -130 162 -245 357 -309 524 -22 57 -64 211 -59 214 6 5 285
76 295 76 6 0 17 -24 23 -52 32 -134 105 -288 211 -445 85 -126 343 -391 474
-489 457 -338 870 -491 1385 -511 624 -24 1246 219 1695 663 381 377 605 825
681 1364 19 137 19 441 0 585 -40 287 -99 487 -216 730 -121 248 -245 422
-444 621 -212 211 -386 333 -673 470 -204 98 -198 89 -212 329 -16 282 -71
510 -175 731 -175 370 -484 687 -846 869 -332 167 -753 232 -1105 170 -102
-18 -279 -65 -358 -95 -78 -31 -135 -41 -175 -34 -30 6 -65 35 -182 149 -156
152 -231 215 -380 317 -304 209 -674 352 -1055 409 -151 22 -446 32 -585 19z
m2088 -2028 c52 -108 91 -258 99 -377 l6 -90 176 0 c189 -1 237 -8 391 -57
312 -99 600 -318 843 -642 37 -48 67 -91 67 -95 0 -4 -57 -47 -127 -96 l-127
-89 -25 34 c-156 206 -250 304 -396 412 -99 73 -273 160 -380 189 -101 27
-310 37 -412 20 l-71 -12 -27 -62 c-64 -150 -177 -310 -303 -433 -83 -81 -195
-174 -210 -174 -12 0 -192 226 -192 240 0 5 28 31 63 58 141 112 265 262 333
402 57 116 68 171 69 320 0 146 -17 226 -72 333 -13 27 -22 51 -19 54 13 13
252 152 262 152 6 1 29 -38 52 -87z m-2897 -2298 c140 -45 141 -46 134 -72 -4
-15 -13 -61 -21 -102 -49 -274 44 -542 256 -731 101 -91 107 -103 114 -234 9
-173 44 -280 126 -379 109 -132 292 -224 520 -263 52 -9 98 -19 101 -22 4 -3
-3 -73 -15 -156 l-21 -150 -45 3 c-71 5 -226 41 -319 74 -253 89 -442 236
-549 428 -64 114 -108 265 -113 385 l-2 60 -77 80 c-255 267 -356 619 -284
998 18 93 30 127 44 127 6 0 74 -21 151 -46z m6323 -531 c3 -49 7 -119 8 -158
l3 -69 -90 -13 c-189 -27 -400 -108 -540 -209 -145 -103 -282 -267 -369 -442
-42 -83 -101 -255 -112 -320 -4 -24 -13 -46 -21 -49 -12 -5 -290 53 -301 62
-2 2 8 47 22 101 117 465 397 828 787 1022 170 84 432 158 570 161 l37 1 6
-87z"/>
</g>
</svg>
