<svg xmlns="http://www.w3.org/2000/svg" width="83" height="62" viewBox="0 0 83.1 62.3"><style>.a{fill:none;stroke-linejoin:round;stroke-width:2;stroke:#FFF;}.b{fill:#00AEEF;}</style><path d="M26.1 48.5c-1.6 0.6-3.2 0.9-5 0.9 -7.8 0-14.1-6.3-14.1-14.1 0-7.3 5.5-13.2 12.5-14v-0.1c0-9.4 7.6-17.1 17-17.1 5.1 0 9.6 2.2 12.7 5.7 1.5-0.6 3.1-1 4.9-1 7 0 12.6 5.7 12.6 12.7 0 0.1 0 0.2 0 0.4 5.8 2.3 9.8 7.9 9.8 14.5 0 8.6-7 15.6-15.6 15.6 -3.7 0-7-1.3-9.7-3.4 -2.8 3.8-7.4 6.3-12.5 6.3C33.5 55 28.9 52.4 26.1 48.5" fill="#19A1D8"/><path d="M26.1 48.5c-1.6 0.6-3.2 0.9-5 0.9 -7.8 0-14.1-6.3-14.1-14.1 0-7.3 5.5-13.2 12.5-14v-0.1c0-9.4 7.6-17.1 17-17.1 5.1 0 9.6 2.2 12.7 5.7 1.5-0.6 3.1-1 4.9-1 7 0 12.6 5.7 12.6 12.7 0 0.1 0 0.2 0 0.4 5.8 2.3 9.8 7.9 9.8 14.5 0 8.6-7 15.6-15.6 15.6 -3.7 0-7-1.3-9.7-3.4 -2.8 3.8-7.4 6.3-12.5 6.3C33.5 55 28.9 52.4 26.1 48.5z" class="a"/><path d="M51 48.5c0.8 0.4-3.7-2.3-4.6-6.7" class="a"/><path d="M69.8 36.1c0 0-6.5 0-8 7.3" class="a"/><path d="M19.5 21.3c0 0 5.7-0.8 10 2.3" class="a"/><path d="M47.1 17.8c0 0 3 4.5-2.6 8.6" class="a"/><path d="M47.9 22.1c0 0 5.2-2.1 9.5 4.3" class="a"/><path d="M26.1 48.5c0 0-4.5-2.1-4.2-7.8" class="a"/><path d="M30 32.3c0 0-1.5 4 2.1 6.8 -0.2 3.2 2 5.1 5.6 5.5" class="a"/></svg>